<svg width="24" height="24" viewBox="0 0 24 24" fill="none" xmlns="http://www.w3.org/2000/svg">
<g id="add_column_before">
<g id="b">
<g id="Group">
<path id="Vector" d="M20 5V19H18V5" fill="black" fill-opacity="0.54"/>
<path id="Vector_2" d="M18 5V3C18.5304 3 19.0391 3.21071 19.4142 3.58579C19.7893 3.96086 20 4.46957 20 5H18Z" fill="black" fill-opacity="0.54"/>
<path id="Vector_3" d="M8 19V21C7.46957 21 6.96086 20.7893 6.58579 20.4142C6.21071 20.0391 6 19.5304 6 19H8Z" fill="black" fill-opacity="0.54"/>
<path id="Vector_4" d="M8 5H6C6 4.46957 6.21071 3.96086 6.58579 3.58579C6.96086 3.21071 7.46957 3 8 3V5Z" fill="black" fill-opacity="0.54"/>
<path id="Vector_5" d="M8 8H6V11H3V13H6L6 16H8V13H11V11H8V8Z" fill="black" fill-opacity="0.54"/>
<path id="Vector_6" d="M14 5V19H12V5" fill="black" fill-opacity="0.54"/>
<path id="Vector_7" d="M8 18V19H6V18" fill="black" fill-opacity="0.54"/>
<path id="Vector_8" d="M8 5V6H6V5" fill="black" fill-opacity="0.54"/>
<path id="Vector_9" d="M18 3V5H8V3" fill="black" fill-opacity="0.54"/>
<path id="Vector_10" d="M18 19V21H8V19" fill="black" fill-opacity="0.54"/>
<path id="Vector_11" d="M18 19H20C20 19.5304 19.7893 20.0391 19.4142 20.4142C19.0391 20.7893 18.5304 21 18 21V19Z" fill="black" fill-opacity="0.54"/>
</g>
</g>
</g>
</svg>
