<svg width="24" height="24" viewBox="0 0 24 24" fill="none" xmlns="http://www.w3.org/2000/svg">
<g id="add_row_after">
<g id="b">
<g id="Group">
<path id="Vector" d="M5 4H19V6H5" fill="black" fill-opacity="0.54"/>
<path id="Vector_2" d="M5 6H3C3 5.46957 3.21071 4.96086 3.58579 4.58579C3.96086 4.21071 4.46957 4 5 4V6Z" fill="black" fill-opacity="0.54"/>
<path id="Vector_3" d="M19 16H21C21 16.5304 20.7893 17.0391 20.4142 17.4142C20.0391 17.7893 19.5304 18 19 18V16Z" fill="black" fill-opacity="0.54"/>
<path id="Vector_4" d="M5 16V18C4.46957 18 3.96086 17.7893 3.58579 17.4142C3.21071 17.0391 3 16.5304 3 16H5Z" fill="black" fill-opacity="0.54"/>
<path id="Vector_5" d="M8 16V18H11V21H13V18H16V16H13V13H11V16H8Z" fill="black" fill-opacity="0.54"/>
<path id="Vector_6" d="M5 10H19V12H5" fill="black" fill-opacity="0.54"/>
<path id="Vector_7" d="M18 16H19V18H18" fill="black" fill-opacity="0.54"/>
<path id="Vector_8" d="M5 16H6V18H5" fill="black" fill-opacity="0.54"/>
<path id="Vector_9" d="M3 6H5V16H3" fill="black" fill-opacity="0.54"/>
<path id="Vector_10" d="M19 6H21V16H19" fill="black" fill-opacity="0.54"/>
<path id="Vector_11" d="M19 6V4C19.5304 4 20.0391 4.21071 20.4142 4.58579C20.7893 4.96086 21 5.46957 21 6H19Z" fill="black" fill-opacity="0.54"/>
</g>
</g>
</g>
</svg>
