<svg width="24" height="24" viewBox="0 0 24 24" fill="none" xmlns="http://www.w3.org/2000/svg">
<g id="delete_row">
<g id="b">
<g id="Group">
<g id="Group_2">
<path id="Vector" d="M5 6L19 6C19.5591 6.03153 20.0831 6.28279 20.4577 6.69901C20.8324 7.11523 21.0273 7.66267 21 8.222V13.778C21.0273 14.3373 20.8324 14.8848 20.4577 15.301C20.0831 15.7172 19.5591 15.9685 19 16H17V14H19V8L5 8V14H7V16L5 16C4.44089 15.9685 3.91692 15.7172 3.54228 15.301C3.16764 14.8848 2.97272 14.3373 3 13.778V8.222C2.97272 7.66267 3.16764 7.11523 3.54228 6.69901C3.91692 6.28279 4.44089 6.03153 5 6Z" fill="black" fill-opacity="0.54"/>
<g id="Group_3">
<path id="Vector_2" opacity="0.54" fill-rule="evenodd" clip-rule="evenodd" d="M16.2428 12.162L14.8428 10.762L11.9998 13.59L9.1568 10.762L7.75681 12.162L10.5998 14.99L7.75681 17.818L9.1568 19.218L11.9998 16.39L14.8428 19.218L16.2428 17.818L13.3998 14.99L16.2428 12.162Z" fill="black"/>
</g>
</g>
</g>
</g>
</g>
</svg>
