<svg width="24" height="24" viewBox="0 0 24 24" fill="none" xmlns="http://www.w3.org/2000/svg">
<g id="delete_column">
<g id="b">
<g id="Group">
<g id="Group_2">
<path id="Vector" d="M6 19L6 5.00002C6.03153 4.44091 6.28279 3.91694 6.69901 3.5423C7.11523 3.16766 7.66267 2.97274 8.222 3.00002L13.778 3.00002C14.3373 2.97274 14.8848 3.16766 15.301 3.5423C15.7172 3.91694 15.9685 4.44091 16 5.00002V7.00002H14V5.00002H8V19H14V17H16V19C15.9685 19.5591 15.7172 20.0831 15.301 20.4577C14.8848 20.8324 14.3373 21.0273 13.778 21H8.222C7.66267 21.0273 7.11523 20.8324 6.69901 20.4577C6.28279 20.0831 6.03153 19.5591 6 19Z" fill="black" fill-opacity="0.54"/>
<g id="Group_3">
<path id="Vector_2" opacity="0.54" fill-rule="evenodd" clip-rule="evenodd" d="M12.162 7.75723L10.762 9.15723L13.59 12.0002L10.762 14.8432L12.162 16.2432L14.99 13.4002L17.818 16.2432L19.218 14.8432L16.39 12.0002L19.218 9.15723L17.818 7.75723L14.99 10.6002L12.162 7.75723Z" fill="black"/>
</g>
</g>
</g>
</g>
</g>
</svg>
