<svg xmlns="http://www.w3.org/2000/svg" xmlns:xlink="http://www.w3.org/1999/xlink" width="1024" height="1024" viewBox="0 0 1024 1024"><defs><clipPath id="b"><rect width="1024" height="1024"/></clipPath></defs><g id="a" clip-path="url(#b)"><path d="M448,0C695.424,0,896,200.576,896,448S695.424,896,448,896,0,695.424,0,448,200.576,0,448,0Z" transform="translate(64 64)" fill="#2d93c1"/><path d="M-210.3,448a449.935,449.935,0,0,1,7.148-80.1c13.7,1.015,27.578,1.529,41.34,1.529,11.937,0,24.01-.386,35.885-1.15,11.753-.757,23.62-1.9,35.271-3.406,11.53-1.488,23.167-3.369,34.587-5.59,11.308-2.2,22.691-4.793,33.832-7.7,11.051-2.888,22.155-6.169,33-9.747,10.785-3.559,21.587-7.5,32.108-11.72a549.986,549.986,0,0,0,61.241-29.073q15.08-8.338,29.731-17.69l-8.11-30.262a19,19,0,0,1,23.844,19.84q6.152-4.228,12.174-8.612l21.819-37.79a36.686,36.686,0,0,1-1.292,64.247q3.673,5.268,7.444,10.437c9.04,12.394,18.679,24.6,28.646,36.275,9.956,11.66,20.485,23.081,31.3,33.945s22.182,21.453,33.789,31.461c11.63,10.029,23.785,19.726,36.129,28.823,4.059,2.992,8.225,5.981,12.383,8.887a129.722,129.722,0,0,0,37.382-16.851,131.126,131.126,0,0,0,47.343-55.33c.355,4.415.535,8.921.535,13.393a165.951,165.951,0,0,1-3.344,33.169,163.667,163.667,0,0,1-24.763,58.849c-.365.541-.724,1.064-1.062,1.553,3.379,1.847,6.8,3.677,10.184,5.44,5.928,3.093,12.009,6.136,18.074,9.045,2.547-1.8,5.126-3.676,7.665-5.569a373.366,373.366,0,0,0,80.751-82.445,370.152,370.152,0,0,0,52.025-104.369c.3,6.767.444,13.632.444,20.41A463.363,463.363,0,0,1,544.01,427.849a458.886,458.886,0,0,1-37.472,100.429A462.708,462.708,0,0,1,447.9,616.055a464.584,464.584,0,0,1-76.671,72A957.228,957.228,0,0,1,262.891,671.3a951.069,951.069,0,0,1-103.964-28.548,951.746,951.746,0,0,1-98.866-39.624c-3.629-1.7-7.281-3.433-10.856-5.16-2.54,1.573-5.08,3.216-7.546,4.882a228.094,228.094,0,0,0-82.4,100.067A226.292,226.292,0,0,0-54,745.61a228.689,228.689,0,0,0-4.5,38.29C-151.572,701.9-210.3,581.8-210.3,448Zm487.994,51.566a26.569,26.569,0,0,0,51.925,4.131l-51.082-14.648A26.407,26.407,0,0,0,277.691,499.567Z" transform="translate(274.804 64)" fill="#fff"/></g></svg>