<svg xmlns="http://www.w3.org/2000/svg" xmlns:xlink="http://www.w3.org/1999/xlink" width="24" height="24" viewBox="0 0 24 24">
  <defs>
    <style>
      .cls-1 {
        fill: none;
      }

      .cls-2 {
        clip-path: url(#clip-add_column_after);
      }

      .cls-3 {
        clip-path: url(#clip-path);
      }

      .cls-4 {
        fill: #f400f4;
      }
    </style>
    <clipPath id="clip-path">
      <rect class="cls-1" width="24" height="24"/>
    </clipPath>
    <clipPath id="clip-add_column_after">
      <rect width="24" height="24"/>
    </clipPath>
  </defs>
  <g id="add_column_after" class="cls-2">
    <g id="Component_1" data-name="Component 1" class="cls-3" transform="translate(0 24) rotate(-90)">
      <g id="Group_3" data-name="Group 3">
        <path id="Path_10" data-name="Path 10" class="cls-4" d="M3,6H17V8H3" transform="translate(2 -2)"/>
        <path id="Intersection_1" data-name="Intersection 1" class="cls-4" d="M-1-1V-3A2,2,0,0,1,1-1Z" transform="translate(6 5) rotate(-90)"/>
        <path id="Intersection_3" data-name="Intersection 3" class="cls-4" d="M-1-1V-3A2,2,0,0,1,1-1Z" transform="translate(18 17) rotate(90)"/>
        <path id="Intersection_4" data-name="Intersection 4" class="cls-4" d="M-1-1V-3A2,2,0,0,1,1-1Z" transform="translate(4 15) rotate(180)"/>
        <path id="Path_2" data-name="Path 2" class="cls-4" d="M6,13v2H9v3h2V15h3V13H11V10H9v3Z" transform="translate(2 3)"/>
        <path id="Path_3" data-name="Path 3" class="cls-4" d="M3,6H17V8H3" transform="translate(2 4)"/>
        <path id="Path_8" data-name="Path 8" class="cls-4" d="M4,6H5V8H4" transform="translate(14 10)"/>
        <path id="Path_9" data-name="Path 9" class="cls-4" d="M3,6H4V8H3" transform="translate(2 10)"/>
        <path id="Path_11" data-name="Path 11" class="cls-4" d="M3,6H5V16H3" transform="translate(0 0)"/>
        <path id="Path_17" data-name="Path 17" class="cls-4" d="M3,6H5V16H3" transform="translate(16 0)"/>
        <path id="Intersection_5" data-name="Intersection 5" class="cls-4" d="M-1-1V-3A2,2,0,0,1,1-1Z" transform="translate(20 7)"/>
      </g>
    </g>
  </g>
</svg>
