<svg xmlns="http://www.w3.org/2000/svg" xmlns:xlink="http://www.w3.org/1999/xlink" width="24" height="24" viewBox="0 0 24 24">
  <defs>
    <style>
      .cls-1 {
        fill: none;
      }

      .cls-2 {
        clip-path: url(#clip-delete_row);
      }

      .cls-3 {
        clip-path: url(#clip-path);
      }

      .cls-4, .cls-5 {
        fill: #f400f4;
      }

      .cls-5 {
        fill-rule: evenodd;
      }
    </style>
    <clipPath id="clip-path">
      <rect class="cls-1" width="24" height="24"/>
    </clipPath>
    <clipPath id="clip-delete_row">
      <rect width="24" height="24"/>
    </clipPath>
  </defs>
  <g id="delete_row" class="cls-2">
    <g id="Component" class="cls-3">
      <g id="Group_4" data-name="Group 4" transform="translate(24 24) rotate(180)">
        <path id="Subtraction_2" data-name="Subtraction 2" class="cls-4" d="M-48,11H-62a2.122,2.122,0,0,1-2-2.222V3.222A2.122,2.122,0,0,1-62,1h2V3h-2V9h14V3h-2V1h2a2.122,2.122,0,0,1,2,2.222V8.778A2.122,2.122,0,0,1-48,11Z" transform="translate(67 7)"/>
        <g id="Group_1" data-name="Group 1" transform="translate(5.643 -1.604) rotate(45)">
          <path id="path" class="cls-5" d="M16.243,9.172l-1.4-1.4L12,10.6,9.157,7.772l-1.4,1.4L10.6,12,7.757,14.828l1.4,1.4L12,13.4l2.843,2.828,1.4-1.4L13.4,12Z" transform="translate(28.971 3.01) rotate(135)"/>
        </g>
      </g>
    </g>
  </g>
</svg>
