<svg width="24" height="24" viewBox="0 0 24 24" fill="none" xmlns="http://www.w3.org/2000/svg">
<g id="add_column_after">
<g id="b">
<g id="Group">
<path id="Vector" d="M4 19L4 5H6L6 19" fill="black" fill-opacity="0.54"/>
<path id="Vector_2" d="M6 19V21C5.46957 21 4.96086 20.7893 4.58579 20.4142C4.21071 20.0391 4 19.5304 4 19H6Z" fill="black" fill-opacity="0.54"/>
<path id="Vector_3" d="M16 5V3C16.5304 3 17.0391 3.21071 17.4142 3.58579C17.7893 3.96086 18 4.46957 18 5H16Z" fill="black" fill-opacity="0.54"/>
<path id="Vector_4" d="M16 19H18C18 19.5304 17.7893 20.0391 17.4142 20.4142C17.0391 20.7893 16.5304 21 16 21V19Z" fill="black" fill-opacity="0.54"/>
<path id="Vector_5" d="M16 16H18V13H21V11H18V8H16V11H13V13H16V16Z" fill="black" fill-opacity="0.54"/>
<path id="Vector_6" d="M10 19V5H12V19" fill="black" fill-opacity="0.54"/>
<path id="Vector_7" d="M16 6V5H18V6" fill="black" fill-opacity="0.54"/>
<path id="Vector_8" d="M16 19V18H18V19" fill="black" fill-opacity="0.54"/>
<path id="Vector_9" d="M6 21V19H16V21" fill="black" fill-opacity="0.54"/>
<path id="Vector_10" d="M6 5V3L16 3V5" fill="black" fill-opacity="0.54"/>
<path id="Vector_11" d="M6 5H4C4 4.46957 4.21071 3.96086 4.58579 3.58579C4.96086 3.21071 5.46957 3 6 3V5Z" fill="black" fill-opacity="0.54"/>
</g>
</g>
</g>
</svg>
