<svg xmlns="http://www.w3.org/2000/svg" xmlns:xlink="http://www.w3.org/1999/xlink" width="24" height="24" viewBox="0 0 24 24"><defs><clipPath id="a"><rect width="24" height="24" fill="none"/></clipPath><clipPath id="c"><rect width="24" height="24"/></clipPath></defs><g id="b" clip-path="url(#c)"><g clip-path="url(#a)"><rect width="24" height="24" fill="rgba(255,255,255,0)"/><path d="M3,6H17V8H3" transform="translate(2 -2)" fill="rgba(0,0,0,0.54)"/><path d="M-1-1V-3A2,2,0,0,1,1-1Z" transform="translate(6 5) rotate(-90)" fill="rgba(0,0,0,0.54)"/><path d="M-1-1V-3A2,2,0,0,1,1-1Z" transform="translate(18 17) rotate(90)" fill="rgba(0,0,0,0.54)"/><path d="M-1-1V-3A2,2,0,0,1,1-1Z" transform="translate(4 15) rotate(180)" fill="rgba(0,0,0,0.54)"/><path d="M6,13v2H9v3h2V15h3V13H11V10H9v3Z" transform="translate(2 3)" fill="rgba(0,0,0,0.54)"/><path d="M3,6H17V8H3" transform="translate(2 4)" fill="rgba(0,0,0,0.54)"/><path d="M4,6H5V8H4" transform="translate(14 10)" fill="rgba(0,0,0,0.54)"/><path d="M3,6H4V8H3" transform="translate(2 10)" fill="rgba(0,0,0,0.54)"/><path d="M3,6H5V16H3" transform="translate(0 0)" fill="rgba(0,0,0,0.54)"/><path d="M3,6H5V16H3" transform="translate(16 0)" fill="rgba(0,0,0,0.54)"/><path d="M-1-1V-3A2,2,0,0,1,1-1Z" transform="translate(20 7)" fill="rgba(0,0,0,0.54)"/></g></g></svg>