<svg xmlns="http://www.w3.org/2000/svg" xmlns:xlink="http://www.w3.org/1999/xlink" width="24" height="24" viewBox="0 0 24 24"><defs><clipPath id="a"><rect width="24" height="24" fill="none"/></clipPath><clipPath id="c"><rect width="24" height="24"/></clipPath></defs><g id="b" clip-path="url(#c)"><rect width="24" height="24" fill="#fff"/><g transform="translate(0 24) rotate(-90)" clip-path="url(#a)"><rect width="24" height="24" transform="translate(0 24) rotate(-90)" fill="rgba(255,255,255,0)"/><g transform="translate(24 24) rotate(180)"><path d="M-48,11H-62a2.122,2.122,0,0,1-2-2.222V3.222A2.122,2.122,0,0,1-62,1h2V3h-2V9h14V3h-2V1h2a2.122,2.122,0,0,1,2,2.222V8.778A2.122,2.122,0,0,1-48,11Z" transform="translate(67 7)" fill="rgba(0,0,0,0.54)"/><g transform="translate(5.643 -1.604) rotate(45)"><path d="M16.243,9.172l-1.4-1.4L12,10.6,9.157,7.772l-1.4,1.4L10.6,12,7.757,14.828l1.4,1.4L12,13.4l2.843,2.828,1.4-1.4L13.4,12Z" transform="translate(28.971 3.01) rotate(135)" fill-rule="evenodd" opacity="0.54"/></g></g></g></g></svg>