<svg width="24" height="24" viewBox="0 0 24 24" fill="none" xmlns="http://www.w3.org/2000/svg">
<g id="add_row_before">
<g id="b">
<g id="Group">
<path id="Vector" d="M19 20H5V18H19" fill="black" fill-opacity="0.54"/>
<path id="Vector_2" d="M19 18H21C21 18.5304 20.7893 19.0391 20.4142 19.4142C20.0391 19.7893 19.5304 20 19 20V18Z" fill="black" fill-opacity="0.54"/>
<path id="Vector_3" d="M5 8H3C3 7.46957 3.21071 6.96086 3.58579 6.58579C3.96086 6.21071 4.46957 6 5 6V8Z" fill="black" fill-opacity="0.54"/>
<path id="Vector_4" d="M19 8V6C19.5304 6 20.0391 6.21071 20.4142 6.58579C20.7893 6.96086 21 7.46957 21 8H19Z" fill="black" fill-opacity="0.54"/>
<path id="Vector_5" d="M16 8V6H13V3L11 3V6H8V8H11V11H13V8H16Z" fill="black" fill-opacity="0.54"/>
<path id="Vector_6" d="M19 14L5 14V12L19 12" fill="black" fill-opacity="0.54"/>
<path id="Vector_7" d="M6 8H5V6H6" fill="black" fill-opacity="0.54"/>
<path id="Vector_8" d="M19 8H18V6H19" fill="black" fill-opacity="0.54"/>
<path id="Vector_9" d="M21 18H19V8H21" fill="black" fill-opacity="0.54"/>
<path id="Vector_10" d="M5 18H3L3 8H5" fill="black" fill-opacity="0.54"/>
<path id="Vector_11" d="M5 18V20C4.46957 20 3.96086 19.7893 3.58579 19.4142C3.21071 19.0391 3 18.5304 3 18H5Z" fill="black" fill-opacity="0.54"/>
</g>
</g>
</g>
</svg>
